<mxfile host="Electron" modified="2023-05-15T21:20:23.669Z" agent="Mozilla/5.0 (Windows NT 10.0; WOW64) AppleWebKit/537.36 (KHTML, like Gecko) draw.io/21.1.2 Chrome/106.0.5249.199 Electron/21.4.3 Safari/537.36" etag="5yUVu1NMrJA68de8C_OF" version="21.1.2" type="device">
  <diagram name="Página-1" id="mUgr-0Y7CDFDTA0PWkUs">
    <mxGraphModel dx="1674" dy="844" grid="1" gridSize="10" guides="1" tooltips="1" connect="1" arrows="1" fold="1" page="1" pageScale="1" pageWidth="827" pageHeight="1169" math="0" shadow="0">
      <root>
        <mxCell id="0" />
        <mxCell id="1" parent="0" />
        <mxCell id="APLnyyu-NKTf5BOjXMQR-1" value="&lt;u&gt;CNPJ&lt;/u&gt;" style="rounded=0;whiteSpace=wrap;html=1;" parent="1" vertex="1">
          <mxGeometry x="80" y="60" width="90" height="40" as="geometry" />
        </mxCell>
        <mxCell id="APLnyyu-NKTf5BOjXMQR-2" value="Nome" style="rounded=0;whiteSpace=wrap;html=1;" parent="1" vertex="1">
          <mxGeometry x="170" y="60" width="90" height="40" as="geometry" />
        </mxCell>
        <mxCell id="APLnyyu-NKTf5BOjXMQR-5" value="&lt;font style=&quot;font-size: 14px;&quot;&gt;Clube&lt;/font&gt;" style="text;html=1;strokeColor=none;fillColor=none;align=center;verticalAlign=middle;whiteSpace=wrap;rounded=0;" parent="1" vertex="1">
          <mxGeometry x="80" y="40" width="52" height="20" as="geometry" />
        </mxCell>
        <mxCell id="APLnyyu-NKTf5BOjXMQR-7" value="&lt;font style=&quot;font-size: 14px;&quot;&gt;Fornecedor&lt;/font&gt;" style="text;html=1;strokeColor=none;fillColor=none;align=center;verticalAlign=middle;whiteSpace=wrap;rounded=0;" parent="1" vertex="1">
          <mxGeometry x="582" y="40" width="80" height="20" as="geometry" />
        </mxCell>
        <mxCell id="APLnyyu-NKTf5BOjXMQR-8" value="&lt;u&gt;CNPJ&lt;/u&gt;" style="rounded=0;whiteSpace=wrap;html=1;" parent="1" vertex="1">
          <mxGeometry x="582" y="60" width="90" height="40" as="geometry" />
        </mxCell>
        <mxCell id="APLnyyu-NKTf5BOjXMQR-9" value="Nome" style="rounded=0;whiteSpace=wrap;html=1;" parent="1" vertex="1">
          <mxGeometry x="672" y="60" width="90" height="40" as="geometry" />
        </mxCell>
        <mxCell id="vV3DHn_Lq2XUR0X3IDpc-60" value="&lt;u&gt;CNPJ_Clube&lt;/u&gt;" style="rounded=0;whiteSpace=wrap;html=1;" parent="1" vertex="1">
          <mxGeometry x="311.75" y="60" width="90" height="40" as="geometry" />
        </mxCell>
        <mxCell id="WyeyBzfe6atFGpclWhun-88" style="edgeStyle=orthogonalEdgeStyle;rounded=0;orthogonalLoop=1;jettySize=auto;html=1;entryX=0;entryY=0.5;entryDx=0;entryDy=0;" parent="1" source="vV3DHn_Lq2XUR0X3IDpc-61" target="APLnyyu-NKTf5BOjXMQR-8" edge="1">
          <mxGeometry relative="1" as="geometry">
            <mxPoint x="605" y="100" as="targetPoint" />
          </mxGeometry>
        </mxCell>
        <mxCell id="vV3DHn_Lq2XUR0X3IDpc-61" value="&lt;u&gt;CNPJ_Forne&lt;/u&gt;" style="rounded=0;whiteSpace=wrap;html=1;" parent="1" vertex="1">
          <mxGeometry x="401.75" y="60" width="90" height="40" as="geometry" />
        </mxCell>
        <mxCell id="vV3DHn_Lq2XUR0X3IDpc-62" value="&lt;font style=&quot;font-size: 14px;&quot;&gt;Clube/Fornecedor&lt;/font&gt;" style="text;html=1;strokeColor=none;fillColor=none;align=center;verticalAlign=middle;whiteSpace=wrap;rounded=0;" parent="1" vertex="1">
          <mxGeometry x="311.75" y="40" width="120.25" height="20" as="geometry" />
        </mxCell>
        <mxCell id="WyeyBzfe6atFGpclWhun-44" value="&lt;font style=&quot;font-size: 14px;&quot;&gt;Cliente&lt;/font&gt;" style="text;html=1;strokeColor=none;fillColor=none;align=center;verticalAlign=middle;whiteSpace=wrap;rounded=0;" parent="1" vertex="1">
          <mxGeometry x="77" y="360" width="55" height="20" as="geometry" />
        </mxCell>
        <mxCell id="WyeyBzfe6atFGpclWhun-45" value="&lt;u&gt;Código&lt;/u&gt;" style="rounded=0;whiteSpace=wrap;html=1;" parent="1" vertex="1">
          <mxGeometry x="78" y="140" width="90" height="40" as="geometry" />
        </mxCell>
        <mxCell id="WyeyBzfe6atFGpclWhun-46" value="Nome" style="rounded=0;whiteSpace=wrap;html=1;" parent="1" vertex="1">
          <mxGeometry x="168" y="140" width="90" height="40" as="geometry" />
        </mxCell>
        <mxCell id="WyeyBzfe6atFGpclWhun-47" value="Tamanho" style="rounded=0;whiteSpace=wrap;html=1;" parent="1" vertex="1">
          <mxGeometry x="348" y="140" width="90" height="40" as="geometry" />
        </mxCell>
        <mxCell id="WyeyBzfe6atFGpclWhun-48" value="Valor" style="rounded=0;whiteSpace=wrap;html=1;" parent="1" vertex="1">
          <mxGeometry x="438" y="140" width="90" height="40" as="geometry" />
        </mxCell>
        <mxCell id="WyeyBzfe6atFGpclWhun-49" value="&lt;font style=&quot;font-size: 14px;&quot;&gt;Produto&lt;/font&gt;" style="text;html=1;strokeColor=none;fillColor=none;align=center;verticalAlign=middle;whiteSpace=wrap;rounded=0;" parent="1" vertex="1">
          <mxGeometry x="77" y="120" width="57.5" height="20" as="geometry" />
        </mxCell>
        <mxCell id="PfaVEGPcRhDJqUQhjH0x-12" style="edgeStyle=orthogonalEdgeStyle;rounded=0;orthogonalLoop=1;jettySize=auto;html=1;exitX=0;exitY=0.5;exitDx=0;exitDy=0;entryX=0;entryY=0.5;entryDx=0;entryDy=0;" parent="1" source="WyeyBzfe6atFGpclWhun-53" target="WyeyBzfe6atFGpclWhun-75" edge="1">
          <mxGeometry relative="1" as="geometry" />
        </mxCell>
        <mxCell id="WyeyBzfe6atFGpclWhun-53" value="&lt;u&gt;Cliente_ClienteID&lt;/u&gt;" style="rounded=0;whiteSpace=wrap;html=1;" parent="1" vertex="1">
          <mxGeometry x="77" y="500" width="103" height="40" as="geometry" />
        </mxCell>
        <mxCell id="HdynCi393oNi04jg914S-12" style="edgeStyle=orthogonalEdgeStyle;rounded=0;orthogonalLoop=1;jettySize=auto;html=1;exitX=1;exitY=0.5;exitDx=0;exitDy=0;entryX=0;entryY=0.5;entryDx=0;entryDy=0;" edge="1" parent="1" source="WyeyBzfe6atFGpclWhun-54" target="HdynCi393oNi04jg914S-8">
          <mxGeometry relative="1" as="geometry" />
        </mxCell>
        <mxCell id="WyeyBzfe6atFGpclWhun-54" value="&lt;u&gt;Hobby_HobbyID&lt;/u&gt;" style="rounded=0;whiteSpace=wrap;html=1;" parent="1" vertex="1">
          <mxGeometry x="180" y="500" width="100" height="40" as="geometry" />
        </mxCell>
        <mxCell id="WyeyBzfe6atFGpclWhun-55" value="&lt;font style=&quot;font-size: 14px;&quot;&gt;Cliente/Hobby&lt;/font&gt;" style="text;html=1;strokeColor=none;fillColor=none;align=center;verticalAlign=middle;whiteSpace=wrap;rounded=0;" parent="1" vertex="1">
          <mxGeometry x="77" y="480" width="93" height="20" as="geometry" />
        </mxCell>
        <mxCell id="WyeyBzfe6atFGpclWhun-59" value="&lt;u&gt;Cor&lt;/u&gt;" style="rounded=0;whiteSpace=wrap;html=1;" parent="1" vertex="1">
          <mxGeometry x="258" y="140" width="90" height="40" as="geometry" />
        </mxCell>
        <mxCell id="PfaVEGPcRhDJqUQhjH0x-9" style="edgeStyle=orthogonalEdgeStyle;rounded=0;orthogonalLoop=1;jettySize=auto;html=1;exitX=0.5;exitY=0;exitDx=0;exitDy=0;entryX=0.5;entryY=1;entryDx=0;entryDy=0;" parent="1" source="WyeyBzfe6atFGpclWhun-62" target="APLnyyu-NKTf5BOjXMQR-8" edge="1">
          <mxGeometry relative="1" as="geometry" />
        </mxCell>
        <mxCell id="WyeyBzfe6atFGpclWhun-62" value="&lt;u&gt;Fornecedor_CNPJ&lt;/u&gt;" style="rounded=0;whiteSpace=wrap;html=1;" parent="1" vertex="1">
          <mxGeometry x="600" y="218.75" width="110" height="40" as="geometry" />
        </mxCell>
        <mxCell id="WyeyBzfe6atFGpclWhun-63" value="&lt;u&gt;Produto_Código&lt;/u&gt;" style="rounded=0;whiteSpace=wrap;html=1;" parent="1" vertex="1">
          <mxGeometry x="500" y="218.75" width="100" height="40" as="geometry" />
        </mxCell>
        <mxCell id="WyeyBzfe6atFGpclWhun-64" value="&lt;font style=&quot;font-size: 14px;&quot;&gt;Fornecedor/Produto&lt;/font&gt;" style="text;html=1;strokeColor=none;fillColor=none;align=center;verticalAlign=middle;whiteSpace=wrap;rounded=0;" parent="1" vertex="1">
          <mxGeometry x="518.75" y="201.25" width="128" height="17.5" as="geometry" />
        </mxCell>
        <mxCell id="WyeyBzfe6atFGpclWhun-65" style="edgeStyle=orthogonalEdgeStyle;rounded=0;orthogonalLoop=1;jettySize=auto;html=1;exitX=0.5;exitY=1;exitDx=0;exitDy=0;" parent="1" source="WyeyBzfe6atFGpclWhun-64" target="WyeyBzfe6atFGpclWhun-64" edge="1">
          <mxGeometry relative="1" as="geometry" />
        </mxCell>
        <mxCell id="PfaVEGPcRhDJqUQhjH0x-13" style="edgeStyle=orthogonalEdgeStyle;rounded=0;orthogonalLoop=1;jettySize=auto;html=1;exitX=0.5;exitY=1;exitDx=0;exitDy=0;entryX=0.75;entryY=0;entryDx=0;entryDy=0;" parent="1" source="WyeyBzfe6atFGpclWhun-66" target="WyeyBzfe6atFGpclWhun-75" edge="1">
          <mxGeometry relative="1" as="geometry" />
        </mxCell>
        <mxCell id="WyeyBzfe6atFGpclWhun-66" value="&lt;u&gt;Cliente_ClienteID&lt;/u&gt;" style="rounded=0;whiteSpace=wrap;html=1;" parent="1" vertex="1">
          <mxGeometry x="512" y="300" width="110.75" height="40" as="geometry" />
        </mxCell>
        <mxCell id="PfaVEGPcRhDJqUQhjH0x-11" style="edgeStyle=orthogonalEdgeStyle;rounded=0;orthogonalLoop=1;jettySize=auto;html=1;entryX=0.75;entryY=1;entryDx=0;entryDy=0;exitX=0.75;exitY=0;exitDx=0;exitDy=0;" parent="1" source="WyeyBzfe6atFGpclWhun-67" target="APLnyyu-NKTf5BOjXMQR-8" edge="1">
          <mxGeometry relative="1" as="geometry">
            <Array as="points">
              <mxPoint x="712" y="280" />
              <mxPoint x="730" y="280" />
              <mxPoint x="730" y="140" />
              <mxPoint x="650" y="140" />
            </Array>
            <mxPoint x="770" y="280" as="sourcePoint" />
          </mxGeometry>
        </mxCell>
        <mxCell id="WyeyBzfe6atFGpclWhun-67" value="&lt;u&gt;CNPJ_Fornenecedor&lt;/u&gt;" style="rounded=0;whiteSpace=wrap;html=1;" parent="1" vertex="1">
          <mxGeometry x="622.75" y="300" width="119.25" height="40" as="geometry" />
        </mxCell>
        <mxCell id="WyeyBzfe6atFGpclWhun-68" value="&lt;font style=&quot;font-size: 14px;&quot;&gt;Cliente/Fornecedor&lt;/font&gt;" style="text;html=1;strokeColor=none;fillColor=none;align=center;verticalAlign=middle;whiteSpace=wrap;rounded=0;" parent="1" vertex="1">
          <mxGeometry x="512" y="280" width="125" height="20" as="geometry" />
        </mxCell>
        <mxCell id="WyeyBzfe6atFGpclWhun-69" value="&lt;font style=&quot;font-size: 14px;&quot;&gt;Pedido&lt;/font&gt;" style="text;html=1;strokeColor=none;fillColor=none;align=center;verticalAlign=middle;whiteSpace=wrap;rounded=0;" parent="1" vertex="1">
          <mxGeometry x="78.5" y="280" width="56.5" height="20" as="geometry" />
        </mxCell>
        <mxCell id="WyeyBzfe6atFGpclWhun-70" value="&lt;u&gt;Número&lt;/u&gt;" style="rounded=0;whiteSpace=wrap;html=1;" parent="1" vertex="1">
          <mxGeometry x="78" y="300" width="90" height="40" as="geometry" />
        </mxCell>
        <mxCell id="WyeyBzfe6atFGpclWhun-72" value="Data" style="rounded=0;whiteSpace=wrap;html=1;" parent="1" vertex="1">
          <mxGeometry x="168.5" y="300" width="90" height="40" as="geometry" />
        </mxCell>
        <mxCell id="WyeyBzfe6atFGpclWhun-73" value="Nota Fiscal" style="rounded=0;whiteSpace=wrap;html=1;" parent="1" vertex="1">
          <mxGeometry x="258.5" y="300" width="90" height="40" as="geometry" />
        </mxCell>
        <mxCell id="WyeyBzfe6atFGpclWhun-74" value="ClienteID" style="rounded=0;whiteSpace=wrap;html=1;" parent="1" vertex="1">
          <mxGeometry x="348.5" y="300" width="90" height="40" as="geometry" />
        </mxCell>
        <mxCell id="WyeyBzfe6atFGpclWhun-75" value="&lt;u&gt;ClienteID&lt;/u&gt;" style="rounded=0;whiteSpace=wrap;html=1;" parent="1" vertex="1">
          <mxGeometry x="77" y="380" width="90" height="40" as="geometry" />
        </mxCell>
        <mxCell id="WyeyBzfe6atFGpclWhun-76" value="Nome" style="rounded=0;whiteSpace=wrap;html=1;" parent="1" vertex="1">
          <mxGeometry x="167" y="380" width="90" height="40" as="geometry" />
        </mxCell>
        <mxCell id="WyeyBzfe6atFGpclWhun-77" value="Sobrenome" style="rounded=0;whiteSpace=wrap;html=1;" parent="1" vertex="1">
          <mxGeometry x="257" y="380" width="90" height="40" as="geometry" />
        </mxCell>
        <mxCell id="WyeyBzfe6atFGpclWhun-78" value="CPF" style="rounded=0;whiteSpace=wrap;html=1;" parent="1" vertex="1">
          <mxGeometry x="347" y="380" width="90" height="40" as="geometry" />
        </mxCell>
        <mxCell id="WyeyBzfe6atFGpclWhun-79" value="Cidade" style="rounded=0;whiteSpace=wrap;html=1;" parent="1" vertex="1">
          <mxGeometry x="437" y="380" width="90" height="40" as="geometry" />
        </mxCell>
        <mxCell id="WyeyBzfe6atFGpclWhun-80" value="Bairro" style="rounded=0;whiteSpace=wrap;html=1;" parent="1" vertex="1">
          <mxGeometry x="527" y="380" width="90" height="40" as="geometry" />
        </mxCell>
        <mxCell id="WyeyBzfe6atFGpclWhun-81" value="Nº" style="rounded=0;whiteSpace=wrap;html=1;" parent="1" vertex="1">
          <mxGeometry x="77" y="420" width="90" height="40" as="geometry" />
        </mxCell>
        <mxCell id="WyeyBzfe6atFGpclWhun-82" value="Data Nascimento" style="rounded=0;whiteSpace=wrap;html=1;" parent="1" vertex="1">
          <mxGeometry x="167" y="420" width="90" height="40" as="geometry" />
        </mxCell>
        <mxCell id="WyeyBzfe6atFGpclWhun-83" value="Sexo" style="rounded=0;whiteSpace=wrap;html=1;" parent="1" vertex="1">
          <mxGeometry x="257" y="420" width="90" height="40" as="geometry" />
        </mxCell>
        <mxCell id="WyeyBzfe6atFGpclWhun-84" value="Rua" style="rounded=0;whiteSpace=wrap;html=1;" parent="1" vertex="1">
          <mxGeometry x="617" y="380" width="90" height="40" as="geometry" />
        </mxCell>
        <mxCell id="WyeyBzfe6atFGpclWhun-85" style="edgeStyle=orthogonalEdgeStyle;rounded=0;orthogonalLoop=1;jettySize=auto;html=1;exitX=0.5;exitY=1;exitDx=0;exitDy=0;" parent="1" source="WyeyBzfe6atFGpclWhun-75" target="WyeyBzfe6atFGpclWhun-75" edge="1">
          <mxGeometry relative="1" as="geometry" />
        </mxCell>
        <mxCell id="PfaVEGPcRhDJqUQhjH0x-7" style="edgeStyle=orthogonalEdgeStyle;rounded=0;orthogonalLoop=1;jettySize=auto;html=1;exitX=0.25;exitY=0;exitDx=0;exitDy=0;entryX=0.5;entryY=1;entryDx=0;entryDy=0;" parent="1" source="PfaVEGPcRhDJqUQhjH0x-2" target="WyeyBzfe6atFGpclWhun-45" edge="1">
          <mxGeometry relative="1" as="geometry">
            <Array as="points">
              <mxPoint x="215" y="210" />
              <mxPoint x="123" y="210" />
            </Array>
          </mxGeometry>
        </mxCell>
        <mxCell id="PfaVEGPcRhDJqUQhjH0x-2" value="&lt;u&gt;Produto_Código&lt;/u&gt;" style="rounded=0;whiteSpace=wrap;html=1;" parent="1" vertex="1">
          <mxGeometry x="190" y="221.25" width="100" height="40" as="geometry" />
        </mxCell>
        <mxCell id="HdynCi393oNi04jg914S-6" style="edgeStyle=orthogonalEdgeStyle;rounded=0;orthogonalLoop=1;jettySize=auto;html=1;exitX=0.75;exitY=1;exitDx=0;exitDy=0;entryX=0.75;entryY=0;entryDx=0;entryDy=0;" edge="1" parent="1" source="PfaVEGPcRhDJqUQhjH0x-3" target="WyeyBzfe6atFGpclWhun-70">
          <mxGeometry relative="1" as="geometry" />
        </mxCell>
        <mxCell id="PfaVEGPcRhDJqUQhjH0x-3" value="&lt;u&gt;Pedido_Número&lt;/u&gt;" style="rounded=0;whiteSpace=wrap;html=1;" parent="1" vertex="1">
          <mxGeometry x="78.75" y="221.25" width="111.25" height="40" as="geometry" />
        </mxCell>
        <mxCell id="PfaVEGPcRhDJqUQhjH0x-4" value="&lt;font style=&quot;font-size: 14px;&quot;&gt;Item&lt;/font&gt;" style="text;html=1;strokeColor=none;fillColor=none;align=center;verticalAlign=middle;whiteSpace=wrap;rounded=0;" parent="1" vertex="1">
          <mxGeometry x="78.75" y="201.25" width="40" height="20" as="geometry" />
        </mxCell>
        <mxCell id="PfaVEGPcRhDJqUQhjH0x-5" style="edgeStyle=orthogonalEdgeStyle;rounded=0;orthogonalLoop=1;jettySize=auto;html=1;exitX=0.5;exitY=1;exitDx=0;exitDy=0;" parent="1" source="PfaVEGPcRhDJqUQhjH0x-4" target="PfaVEGPcRhDJqUQhjH0x-4" edge="1">
          <mxGeometry relative="1" as="geometry" />
        </mxCell>
        <mxCell id="PfaVEGPcRhDJqUQhjH0x-14" value="Telefone" style="rounded=0;whiteSpace=wrap;html=1;" parent="1" vertex="1">
          <mxGeometry x="347" y="420" width="90" height="40" as="geometry" />
        </mxCell>
        <mxCell id="1Jdg57wcC1tsPhSfntH9-2" value="Quantidade" style="rounded=0;whiteSpace=wrap;html=1;" parent="1" vertex="1">
          <mxGeometry x="290" y="221.25" width="90" height="40" as="geometry" />
        </mxCell>
        <mxCell id="HdynCi393oNi04jg914S-2" style="edgeStyle=orthogonalEdgeStyle;rounded=0;orthogonalLoop=1;jettySize=auto;html=1;entryX=0.75;entryY=1;entryDx=0;entryDy=0;exitX=0.5;exitY=1;exitDx=0;exitDy=0;" edge="1" parent="1" source="vV3DHn_Lq2XUR0X3IDpc-60" target="APLnyyu-NKTf5BOjXMQR-1">
          <mxGeometry relative="1" as="geometry">
            <mxPoint x="184.5" y="140" as="sourcePoint" />
            <mxPoint x="297.5" y="160" as="targetPoint" />
          </mxGeometry>
        </mxCell>
        <mxCell id="HdynCi393oNi04jg914S-3" style="edgeStyle=orthogonalEdgeStyle;rounded=0;orthogonalLoop=1;jettySize=auto;html=1;entryX=0.75;entryY=1;entryDx=0;entryDy=0;exitX=0;exitY=0.5;exitDx=0;exitDy=0;" edge="1" parent="1" source="WyeyBzfe6atFGpclWhun-63" target="WyeyBzfe6atFGpclWhun-45">
          <mxGeometry relative="1" as="geometry">
            <mxPoint x="448.75" y="220" as="sourcePoint" />
            <mxPoint x="132.75" y="190" as="targetPoint" />
            <Array as="points">
              <mxPoint x="478.75" y="239" />
              <mxPoint x="478.75" y="200" />
              <mxPoint x="145.75" y="200" />
            </Array>
          </mxGeometry>
        </mxCell>
        <mxCell id="HdynCi393oNi04jg914S-7" value="Idade" style="rounded=0;whiteSpace=wrap;html=1;" vertex="1" parent="1">
          <mxGeometry x="437" y="420" width="90" height="40" as="geometry" />
        </mxCell>
        <mxCell id="HdynCi393oNi04jg914S-8" value="&lt;u&gt;HobbyID&lt;/u&gt;" style="rounded=0;whiteSpace=wrap;html=1;" vertex="1" parent="1">
          <mxGeometry x="338.75" y="500" width="90" height="40" as="geometry" />
        </mxCell>
        <mxCell id="HdynCi393oNi04jg914S-9" value="&lt;u&gt;Nome&lt;/u&gt;" style="rounded=0;whiteSpace=wrap;html=1;" vertex="1" parent="1">
          <mxGeometry x="428.75" y="500" width="90" height="40" as="geometry" />
        </mxCell>
        <mxCell id="HdynCi393oNi04jg914S-10" value="&lt;font style=&quot;font-size: 14px;&quot;&gt;Hobby&lt;/font&gt;" style="text;html=1;strokeColor=none;fillColor=none;align=center;verticalAlign=middle;whiteSpace=wrap;rounded=0;" vertex="1" parent="1">
          <mxGeometry x="338.75" y="480" width="53.5" height="20" as="geometry" />
        </mxCell>
      </root>
    </mxGraphModel>
  </diagram>
</mxfile>
